Mona Singh Nude Adult MMS [Un-Cut] Leaked - SceneDL

General
Complete name                            : Mona Singh Nude Adult MMS [Un-Cut] Leaked - SceneDL.mp4
Format                                   : MPEG-4
Format profile                           : Base Media
Codec ID                                 : isom
File size                                : 970 KiB
Duration                                 : 23s 875ms
Overall bit rate mode                    : Variable
Overall bit rate                         : 333 Kbps
Writing application                      : Lavf53.31.100

Video
ID                                       : 1
Format                                   : AVC
Format/Info                              : Advanced Video Codec
Format profile                           : Baseline@L1.3
Format settings, CABAC                   : No
Format settings, ReFrames                : 1 frame
Codec ID                                 : avc1
Codec ID/Info                            : Advanced Video Coding
Duration                                 : 23s 875ms
Bit rate                                 : 239 Kbps
Width                                    : 320 pixels
Height                                   : 240 pixels
Display aspect ratio                     : 4:3
Frame rate mode                          : Constant
Frame rate                               : 24.000 fps
Color space                              : YUV
Chroma subsampling                       : 4:2:0
Bit depth                                : 8 bits
Scan type                                : Progressive
Bits/(Pixel*Frame)                       : 0.129
Stream size                              : 696 KiB (72%)
Writing library                          : x264 core 129

Audio
ID                                       : 2
Format                                   : AAC
Format/Info                              : Advanced Audio Codec
Format profile                           : LC
Codec ID                                 : 40
Duration                                 : 23s 780ms
Bit rate mode                            : Variable
Bit rate                                 : 88.4 Kbps
Maximum bit rate                         : 128 Kbps
Channel(s)                               : 2 channels
Channel positions                        : Front: L R
Sampling rate                            : 32.0 KHz
Compression mode                         : Lossy
Stream size                              : 256 KiB (26%)

By:

SceneDL